<?xml version="1.0" encoding="utf-8" ?>
<svg xmlns="http://www.w3.org/2000/svg" xmlns:xlink="http://www.w3.org/1999/xlink" width="1023" height="1023">
	<path fill="#E9E2D8" d="M0 0L1024 0L1024 1024L0 1024L0 0Z"/>
	<path fill="#88958A" d="M783.193 214.479C787.673 210.667 792.063 206.622 796.949 203.335C809.528 194.873 825.444 191.308 840.47 192.465C877.683 195.33 910.441 225.241 933.662 252.461C972.104 297.521 998.11 357.352 993.141 417.402C990.398 450.554 980.152 487.933 953.805 510.102Q953.083 510.712 952.346 511.303Q951.609 511.895 950.858 512.468Q950.107 513.041 949.342 513.595Q948.576 514.149 947.798 514.684Q947.019 515.219 946.227 515.735Q945.435 516.25 944.631 516.746Q943.826 517.242 943.01 517.717Q942.193 518.193 941.365 518.648Q940.537 519.103 939.698 519.537Q938.859 519.972 938.009 520.385Q937.16 520.799 936.3 521.191Q935.44 521.583 934.571 521.954Q933.702 522.324 932.824 522.673Q931.946 523.022 931.06 523.35Q930.173 523.677 929.279 523.982Q928.385 524.287 927.483 524.569Q926.582 524.852 925.673 525.112Q924.765 525.372 923.85 525.61Q922.936 525.847 922.016 526.062Q921.095 526.277 920.17 526.469Q919.245 526.661 918.315 526.829Q917.386 526.998 916.452 527.144Q915.519 527.289 914.582 527.412Q913.645 527.534 912.705 527.633Q911.765 527.732 910.824 527.808Q909.882 527.884 908.938 527.936Q907.995 527.988 907.05 528.017Q906.106 528.046 905.161 528.051Q904.216 528.057 903.271 528.039Q902.327 528.02 901.383 527.979Q900.439 527.937 899.496 527.872Q898.554 527.807 897.613 527.719C873.445 525.556 851.699 512.544 836.337 494.052C830.884 487.488 826.791 480.256 822.906 472.697C821.423 469.811 820.283 466.558 818.465 463.888C817.608 461.477 817.719 457.952 817.466 455.378C815.85 438.952 815.481 422.553 819.182 406.357Q821.09 398.054 824.056 390.068C825.357 386.567 829.492 378.732 829.828 375.609C829.878 375.149 829.654 374.701 829.567 374.247C829.024 373.841 828.676 373.294 827.954 373.459C822.841 374.622 803.35 408.135 799.065 414.964C796.254 407.308 794.648 398.028 793.366 389.947C792.862 386.77 793.081 382.47 791.887 379.556C795.064 374.424 797.907 369.19 800.168 363.584C813.761 329.874 811.894 296.202 800.833 262.145C799.041 256.627 796.336 251.436 794.404 245.963C790.687 235.436 787.551 224.781 783.193 214.479Z"/>
	<path fill="#DFB39D" d="M122.034 364.605C127.243 360.016 131.756 354.436 136.673 349.508C147.476 338.678 158.582 328.414 170.7 319.08C174.897 340.723 180.386 362.199 185.096 383.746L213.095 511.312L225.253 565.036C227.424 574.868 228.746 586.082 232.515 595.416C228.259 610.253 224.442 625.228 220.078 640.027L209.883 676.665C208.374 682.135 206.28 687.961 205.351 693.535C199.947 694.809 194.461 697.666 189.249 699.654C174.849 705.144 159.955 708.707 144.49 709.062C114.789 709.744 84.8478 701.664 63.0139 680.7C39.9502 658.556 31.0094 627.222 30.4927 596.001C29.4455 532.725 62.8529 453.39 96.1309 400.533C103.861 388.256 111.895 375.319 122.022 364.838L122.034 364.605Z"/>
	<path fill="#E4DDD2" d="M122.034 364.605C118.296 355.224 113.535 346.219 109.804 336.801C99.9371 311.891 93.5 283.811 91.453 257.095C90.6335 246.4 90.3325 235.257 91.6985 224.606C94.9885 198.952 108.024 173.879 124.797 154.426Q127.294 151.53 129.906 148.736Q132.519 145.943 135.241 143.258Q137.964 140.572 140.793 137.999Q143.622 135.425 146.553 132.968Q149.483 130.511 152.511 128.174Q155.538 125.837 158.657 123.625Q161.776 121.412 164.982 119.327Q168.188 117.242 171.476 115.288C214.619 89.8138 271.35 79.4982 320.637 75.7472Q367.231 72.2709 413.939 73.4955C489.384 76.0016 603.341 91.0324 667.657 130.48C673.098 133.817 679.112 137.829 683.812 142.148C687.257 145.314 690.165 149.181 693.741 152.18L694.437 152.755C694.334 154.101 694.255 155.452 694.097 156.793C678.492 153.654 663.068 149.852 647.2 148.191C623.142 145.674 598.701 146.273 574.644 148.467C562.012 149.618 549.423 150.752 536.89 152.761C488.725 160.483 441.852 174.807 394.873 187.558C363.956 195.95 332.243 204.047 302.951 217.246C298.735 219.146 293.832 220.898 289.915 223.33C289.571 223.544 289.25 223.791 288.923 224.031C274.378 216.614 258.788 214.876 243.2 219.944C229.159 224.509 217.335 233.516 210.625 246.846C207.785 252.49 206.517 258.074 205.446 264.267C195.732 265.939 172.169 268.282 166.526 276.502C162.862 281.838 163.893 288.472 165.179 294.393C166.97 302.634 168.949 310.83 170.7 319.08C158.582 328.414 147.476 338.678 136.673 349.508C131.756 354.436 127.243 360.016 122.034 364.605Z"/>
	<path fill="#4C4C4A" d="M694.437 152.755C697.104 135.295 694.391 115.876 688.908 99.0957C687.754 95.5636 684.422 90.5571 684.515 86.9823C685.511 86.6079 685.102 86.5557 686.062 86.984C690.34 88.8936 699.827 100.063 703.764 104.043C730.396 130.975 753.605 157.087 771.674 190.641C775.874 198.441 779.387 206.49 783.193 214.479C787.551 224.781 790.687 235.436 794.404 245.963C796.336 251.436 799.041 256.627 800.833 262.145C811.894 296.202 813.761 329.874 800.168 363.584C797.907 369.19 795.064 374.424 791.887 379.556C793.081 382.47 792.862 386.77 793.366 389.947C794.648 398.028 796.254 407.308 799.065 414.964C803.35 408.135 822.841 374.622 827.954 373.459C828.676 373.294 829.024 373.841 829.567 374.247C829.654 374.701 829.878 375.149 829.828 375.609C829.492 378.732 825.357 386.567 824.056 390.068Q821.09 398.054 819.182 406.357C815.481 422.553 815.85 438.952 817.466 455.378C817.719 457.952 817.608 461.477 818.465 463.888C818.643 469.05 818.721 474.39 819.588 479.488C821.132 488.559 824.03 497.379 825.502 506.536C828.836 527.29 826.934 548.363 824.182 569.06C824.311 569.101 824.439 569.143 824.569 569.182C833.023 571.748 842.357 572.314 851.004 574.345C902.782 586.509 951.407 600.272 978.903 650.56C996.572 682.874 995.5 723.43 985.219 757.933Q984.319 760.898 983.346 763.84Q982.373 766.782 981.328 769.699Q980.283 772.616 979.167 775.507Q978.051 778.398 976.864 781.26Q975.677 784.123 974.421 786.955Q973.164 789.788 971.839 792.588Q970.513 795.389 969.119 798.157Q967.724 800.924 966.263 803.656Q964.801 806.389 963.273 809.084Q961.745 811.78 960.151 814.437Q958.557 817.095 956.898 819.712Q955.239 822.329 953.517 824.905Q951.795 827.481 950.009 830.014Q948.224 832.547 946.378 835.035Q944.531 837.523 942.623 839.965Q940.716 842.408 938.75 844.802Q936.783 847.197 934.758 849.542Q932.733 851.888 930.651 854.183Q928.57 856.478 926.432 858.722Q924.294 860.965 922.103 863.156Q919.911 865.346 917.666 867.482Q915.42 869.618 913.124 871.698Q910.827 873.778 908.48 875.801Q906.133 877.824 903.737 879.789Q901.34 881.754 898.897 883.659Q896.453 885.564 893.964 887.409Q891.474 889.254 888.94 891.038Q886.406 892.821 883.828 894.541Q881.251 896.262 878.633 897.918Q876.014 899.575 873.356 901.167Q870.697 902.759 868 904.285Q865.303 905.811 862.57 907.271C849.379 914.401 835.426 920.864 821.328 925.989C753.739 950.56 659.985 959.923 590.431 939.14C568.574 932.609 546.818 922.21 528.704 908.292C523.027 903.93 517.945 898.974 512.478 894.38C507.26 895.124 501.965 896.583 496.802 897.716L466.117 904.496L360.772 928.091L333.336 933.937C328.379 934.982 323.187 936.427 318.154 936.91C314.9 937.223 311.089 937.303 308.115 935.735C305.273 934.238 302.757 931.723 301.538 928.727C299.511 923.749 298.738 917.669 297.6 912.399L290.748 880.828L263.961 758.249L256.774 724.826C255.014 716.484 253.507 707.909 250.888 699.79L250.605 698.924C239.554 728.032 230.033 758.483 219.805 787.956C214.107 804.377 207.315 820.416 201.706 836.864C196.47 852.223 193.064 868.035 187.208 883.224C183.791 892.089 177.153 910.208 168.235 914.173C166.295 920.033 162.909 931.461 158.317 935.315C157.063 936.368 156.28 936.246 154.786 936.055C153.407 935.164 152.642 934.319 151.988 932.789C149.357 926.631 152.023 918.181 154.204 912.207C152.078 901.71 152.799 892.212 154.691 881.711C157.858 864.137 164.995 847.62 169.404 830.388L194.758 733.089C198.305 719.901 201.449 706.629 205.351 693.535C206.28 687.961 208.374 682.135 209.883 676.665L220.078 640.027C224.442 625.228 228.259 610.253 232.515 595.416C228.746 586.082 227.424 574.868 225.253 565.036L213.095 511.312L185.096 383.746C180.386 362.199 174.897 340.723 170.7 319.08C168.949 310.83 166.97 302.634 165.179 294.393C163.893 288.472 162.862 281.838 166.526 276.502C172.169 268.282 195.732 265.939 205.446 264.267C206.517 258.074 207.785 252.49 210.625 246.846C217.335 233.516 229.159 224.509 243.2 219.944C258.788 214.876 274.378 216.614 288.923 224.031C289.25 223.791 289.571 223.544 289.915 223.33C293.832 220.898 298.735 219.146 302.951 217.246C332.243 204.047 363.956 195.95 394.873 187.558C441.852 174.807 488.725 160.483 536.89 152.761C549.423 150.752 562.012 149.618 574.644 148.467C598.701 146.273 623.142 145.674 647.2 148.191C663.068 149.852 678.492 153.654 694.097 156.793C694.255 155.452 694.334 154.101 694.437 152.755Z"/>
	<path fill="#E9E2D8" d="M700.12 537.017C704.532 542.644 708.981 548.239 713.938 553.405C711.551 554.114 709.017 552.674 706.403 552.727C704.182 547.53 701.97 542.362 700.12 537.017Z"/>
	<path fill="#E9E2D8" d="M157.291 914.401L163.495 915.145C162.039 919.795 160.462 924.281 158.432 928.716C157.604 930.041 156.586 931.247 155.622 932.477C155.255 926.047 155.133 920.571 157.291 914.401Z"/>
	<path fill="#DFB39D" d="M289.665 229.283C293.944 231.703 297.43 234.513 300.783 238.121C295.764 239.45 290.707 241.007 285.597 241.929C282.999 238.978 280.669 237.438 277.104 235.941C277.891 235.808 277.616 235.931 278.284 235.528C281.1 233.828 283.986 231.771 287.141 230.787C288.275 230.434 288.826 230.195 289.665 229.283Z"/>
	<path fill="#DFB39D" d="M335.175 344.53C337.888 342.885 341.431 340.93 344.725 341.851C346.969 342.478 348.514 344.446 349.477 346.465C352.132 352.033 351.726 359.338 351.813 365.384C350.453 363.018 349.116 361.12 347.314 359.057C347.116 358.831 346.924 358.6 346.728 358.372C341.896 356.023 336.892 354.228 331.536 356.054C328.508 357.087 326.536 359.04 324.285 361.197C327.276 354.939 330.035 349.295 335.175 344.53Z"/>
	<path fill="#4C4C4A" d="M335.72 352.037C340.464 351.657 344.122 352.199 347.893 355.402C348.978 356.324 349.82 357.231 350.219 358.624L349.776 359.521C348.512 359.445 347.807 358.979 346.728 358.372C344.442 355.519 342.917 353.921 339.14 353.636C336.417 353.431 333.39 354.262 330.711 354.758C332.361 353.694 333.882 352.739 335.72 352.037Z"/>
	<path fill="#E4DDD2" d="M187.371 307.684C186.538 303.337 183.628 294.022 185.669 290.138C186.215 289.099 187.187 288.396 188.262 287.978C191.275 286.806 195.032 286.633 198.211 286.002C201.347 285.379 204.456 284.499 207.545 283.679L210.352 289.835C204.815 294.593 198.78 298.725 192.955 303.116C191.044 304.556 189.346 306.366 187.371 307.684Z"/>
	<path fill="#88958A" d="M821.204 386.534C816.853 398.919 813.234 411.349 812.513 424.548C812.127 431.628 812.675 439.012 811.929 446.012C810.049 438.927 804.854 424.526 801.315 418.433C807.656 407.588 814.112 396.912 821.204 386.534Z"/>
	<path fill="#E4DDD2" d="M226.481 275.72C225.502 268.418 226.251 261.095 229.838 254.553C234.286 246.441 242.112 241.059 250.907 238.59C261.727 235.552 271.286 237.005 280.986 242.509C271.039 244.589 260.096 245.467 250.544 248.934C244.337 251.187 237.625 256.087 234.772 262.211C234.786 264 235.039 264.084 236.102 265.437C235.694 266.509 236.053 266.105 235.061 266.626C230.016 269.274 230.14 272.434 226.481 275.72Z"/>
	<path fill="#88958A" d="M780.314 219.649C782.908 226.915 786.25 233.989 788.542 241.353C792.797 255.025 793.825 273.154 792.592 287.396C792.124 292.793 790.93 298.022 790.252 303.372C789.964 296.383 787.561 288.697 786.044 281.837C783.612 270.837 781.352 259.903 779.966 248.708C778.859 239.766 781.103 228.493 779.599 220.77L780.314 219.649Z"/>
	<path fill="#DFB39D" d="M306.55 559.133C310.022 558.832 313.448 558.794 316.808 559.843C320.515 561 323.95 563.359 325.729 566.894C327.234 569.884 327.526 573.342 326.295 576.479C324.163 581.914 318.911 584.511 313.904 586.709C313.698 586.761 313.494 586.816 313.288 586.867C305.957 588.659 300.662 587.332 294.349 583.514C297.088 576.809 299.765 566.836 303.36 561.012C304.25 559.57 305.028 559.527 306.55 559.133Z"/>
	<path fill="#E4DDD2" d="M174.406 316.925C173.041 310.522 171.37 304.176 169.836 297.811C168.466 292.122 166.195 284.432 169.704 279.117C174.216 272.284 197.13 269.723 205.296 268.101C205.394 272.327 205.757 276.239 206.675 280.371C202.615 281.393 198.578 282.27 194.463 283.034C190.625 283.746 184.633 284.116 182.361 287.729C179.291 292.613 182.627 302.719 183.72 308.069C179.974 309.928 176.842 313.575 174.406 316.925Z"/>
	<path fill="#E9E2D8" d="M250.965 669.879C252.893 670.609 254.785 671.277 256.782 671.792C238.702 716.349 225.112 762.739 208.202 807.758C204.722 817.021 201.993 826.96 197.984 835.949C197.214 837.675 196.316 839.568 194.741 840.699C194.048 841.197 194.242 841.059 193.393 840.87C194.445 834.005 197.923 826.337 200.069 819.691Q209.568 789.586 220.308 759.902C230.883 730.005 240.005 699.668 250.965 669.879Z"/>
	<path fill="#E9E2D8" d="M220.87 651.177C222.596 651.333 224.179 651.487 225.838 652.001C221.895 668.355 217.313 684.524 212.97 700.772C209.289 714.547 205.871 728.353 201.817 742.031C198.217 754.173 193.647 765.998 190.203 778.187C188.067 785.75 178.786 831.025 174.976 834.147C174.36 834.653 174.414 834.454 173.481 834.383C172.91 833.385 173.021 833.08 173.194 831.973C174.125 826.007 176.201 819.742 177.588 813.813C181.67 796.362 186.004 779.094 190.751 761.809L220.87 651.177Z"/>
	<path fill="#88958A" d="M796.954 265.826C799.329 271.508 800.73 277.897 802.127 283.89C808.386 310.721 807.41 335.918 796.976 361.513C795.593 364.906 794.142 368.415 792.239 371.546C790.418 359.943 795.638 319.945 791.307 312.495C796.182 296.023 797.235 282.844 796.954 265.826Z"/>
	<path fill="#DFB39D" d="M353.169 376.366C353.76 376.993 353.883 377.369 354.151 378.215C362.909 405.802 359.232 437.426 349.513 464.239C345.654 474.886 340.645 484.977 335.526 495.061C334.573 497.096 333.573 499.008 332.376 500.91Q336.429 487.637 339.407 474.082Q342.386 460.528 344.269 446.778C345.537 436.861 346.024 426.871 347.209 416.953C348.827 403.407 351.44 389.926 353.169 376.366Z"/>
	<path fill="#E9E2D8" d="M796.761 562.993C799.22 558.336 798.354 551.408 800.058 546.228C803.351 536.223 809.108 527.267 812.713 517.42C815.81 508.96 816.639 499.986 819.539 491.605C824.208 520.152 824.882 539.8 820.532 568.403C816.923 567.931 798.522 564.798 796.761 562.993Z"/>
	<path fill="#E9E2D8" d="M171.305 838.652Q173.794 840.9 176.624 842.699C182.983 846.689 188.182 846.68 195.302 845.127C189.958 864.549 183.566 884.398 173.802 902.094C172.036 904.875 169.963 908.077 167.084 909.796C165.479 910.754 162.882 911.567 161.022 910.962C159.435 910.446 158.461 909.364 157.828 907.86C152.832 895.997 166.046 851.771 171.305 838.652Z"/>
	<path fill="#DFB39D" d="M644.299 170.62C646.542 170.32 649.428 169.972 651.412 171.346C652.906 172.38 653.604 174.635 654.135 176.287C656.75 184.422 658.241 193.27 660.248 201.606L672.446 251.511C674.853 261.765 676.694 272.29 679.606 282.405C677.888 289.907 675.505 297.321 673.366 304.715C672.254 295.632 669.75 286.522 667.698 277.603C664.335 264.999 647.977 186.183 644.232 183.308C636.78 182.683 622.967 186.428 614.904 187.777C613.499 184.385 611.915 181.104 610.294 177.811C621.535 175.028 632.945 172.882 644.299 170.62Z"/>
	<path fill="#E2B36F" d="M677.035 368.702C662.409 323.181 686.122 292.286 691.282 249.335C696.248 263.13 699.896 279.417 699.363 294.05C698.591 315.198 693.272 332.583 697.409 354.109C691.937 356.734 687.075 359.436 682.492 363.466C680.609 365.122 679.038 367.21 677.035 368.702Z"/>
	<path fill="#DFB39D" d="M558.299 157.173Q562.66 156.66 567.05 156.753C579.357 157.004 592.601 162.887 601.01 171.87C609.333 180.76 614.155 193.382 613.654 205.578C613.133 218.267 606.644 230.511 597.314 238.948C587.758 247.589 574.884 253.139 561.863 252.377C550.521 251.712 538.034 246.979 530.33 238.428C534.641 237.055 539.347 236.327 543.766 235.321C553.87 240.482 562.907 241.118 573.853 238.41Q574.667 238.185 575.471 237.926Q576.275 237.667 577.067 237.373Q577.859 237.08 578.637 236.753Q579.416 236.427 580.18 236.067Q580.945 235.707 581.693 235.316Q582.441 234.924 583.172 234.501Q583.903 234.077 584.615 233.623Q585.327 233.169 586.019 232.685Q586.711 232.201 587.382 231.688Q588.053 231.175 588.702 230.634Q589.35 230.093 589.975 229.525Q590.6 228.957 591.2 228.362Q591.8 227.768 592.374 227.149Q592.949 226.53 593.496 225.886Q594.043 225.243 594.563 224.577Q595.082 223.911 595.573 223.224C600.935 215.815 603.838 206.478 602.294 197.359C600.81 188.599 595.476 180.304 588.213 175.206C579.163 168.854 567.28 166.913 556.51 168.802C541.699 171.399 529.899 180.175 521.427 192.332C518.136 193.245 514.771 193.947 511.443 194.715C512.41 188.967 514.966 183.917 518.423 179.271C528.021 166.372 542.667 159.455 558.299 157.173Z"/>
	<path fill="#E4DDD2" d="M309.517 283.386Q308.753 285.128 307.851 286.802C300.863 299.733 288.332 310.476 274.123 314.574C261.094 318.331 247.426 316.531 235.605 309.973C224.199 303.646 214.19 292.909 210.631 280.156C207.601 269.301 209.401 256.345 214.933 246.559C221.94 234.163 233.742 226.791 247.194 223.042C262.317 218.828 276.187 221.69 289.665 229.283C288.826 230.195 288.275 230.434 287.141 230.787C283.986 231.771 281.1 233.828 278.284 235.528C277.616 235.931 277.891 235.808 277.104 235.941C270.386 233.622 263.489 232.699 256.406 233.568Q255.415 233.69 254.43 233.86Q253.446 234.029 252.471 234.247Q251.497 234.464 250.534 234.729Q249.571 234.994 248.622 235.305Q247.673 235.617 246.74 235.974Q245.807 236.331 244.893 236.733Q243.979 237.136 243.085 237.582Q242.192 238.028 241.321 238.517Q240.45 239.006 239.604 239.538Q238.759 240.069 237.94 240.64Q237.121 241.212 236.33 241.823Q235.54 242.433 234.781 243.082Q234.021 243.731 233.294 244.415Q232.567 245.1 231.874 245.82Q231.181 246.539 230.525 247.291Q229.868 248.044 229.248 248.827C223.287 256.483 221.307 266.351 222.631 275.86C223.811 284.334 228.819 291.832 235.612 296.91C243.975 303.162 255.396 305.112 265.588 303.584C277.282 301.831 288.225 295.671 295.217 286.143C299.946 285.11 304.762 284.318 309.517 283.386Z"/>
	<path fill="#DFB39D" d="M183.72 308.069C188.255 330.766 193.858 353.331 198.957 375.918Q214.341 443.056 228.447 510.475Q232.194 527.945 236.263 545.343C237.801 552.191 239.887 559.437 240.216 566.463C240.548 573.578 236.77 582.69 233.971 589.143C228.508 561.187 221.927 533.598 215.689 505.818Q193.932 411.616 174.406 316.925C176.842 313.575 179.974 309.928 183.72 308.069Z"/>
	<path fill="#E2B36F" d="M779.599 220.77C781.103 228.493 778.859 239.766 779.966 248.708C781.352 259.903 783.612 270.837 786.044 281.837C787.561 288.697 789.964 296.383 790.252 303.372C786.627 317.315 781.523 329.381 775.125 342.241C773.467 345.573 771.717 349.763 769.493 352.708C756.843 351.306 745.639 348.413 732.697 348.467C734.998 341.48 736.568 334.473 739.261 327.536C745.616 311.164 753.622 295.309 759.438 278.766Q762.237 270.713 764.255 262.43C765.094 258.901 765.611 255.154 766.667 251.698L766.857 251.092C772.22 245.473 772.831 229.594 779.599 220.77Z"/>
	<path fill="#E9E2D8" d="M226.994 653.498C232.846 658.906 242.61 666.06 249.692 669.62C244.848 683.046 239.872 696.447 235.252 709.951C231.163 721.905 227.677 734.056 223.69 746.042L193.27 835.727C192.792 837.09 191.954 840.248 190.848 841.103C189.585 842.079 188.181 842.143 186.652 842.026C183.987 841.823 178.035 840.506 176.505 838.162C174.759 835.486 179.09 829.837 179.724 826.837C181.364 819.064 183.732 811.434 185.607 803.713C188.198 793.038 190.376 782.174 193.558 771.659C197.347 759.139 201.923 746.888 205.59 734.314C213.383 707.591 219.91 680.419 226.994 653.498Z"/>
	<path fill="#DFB39D" d="M526.636 191.244C535.491 180.3 546.982 173.403 561.118 171.913C570.599 170.914 580.18 173.416 587.605 179.513C593.827 184.622 598.357 191.931 599.058 200.05C599.801 208.666 596.324 217.005 590.764 223.446Q590.116 224.19 589.432 224.9Q588.748 225.61 588.03 226.286Q587.311 226.961 586.559 227.599Q585.808 228.238 585.025 228.838Q584.243 229.438 583.431 229.998Q582.619 230.558 581.781 231.077Q580.942 231.596 580.079 232.072Q579.215 232.549 578.329 232.981Q577.443 233.414 576.536 233.801Q575.629 234.189 574.704 234.531Q573.779 234.872 572.838 235.167Q571.897 235.462 570.943 235.71Q569.988 235.958 569.022 236.157Q568.057 236.357 567.082 236.508Q566.107 236.659 565.127 236.761Q564.146 236.863 563.161 236.916C558.247 237.214 554.22 236.268 549.753 234.283C560.721 232.336 576.796 231.138 583.598 221.051C586.241 217.132 587.302 211.6 586.296 206.973C585.507 203.345 583.01 199.264 579.825 197.265C576.2 194.989 572.136 194.314 567.948 194.778C552.275 196.514 536.317 200.792 520.855 203.938L415.669 226.131L306.135 249.11L274.701 255.675C269.401 256.776 263.936 257.638 258.719 259.075C252.839 260.694 247.36 263.949 244.247 269.351Q243.814 270.094 243.459 270.876Q243.104 271.659 242.829 272.473Q242.555 273.288 242.365 274.126Q242.174 274.964 242.069 275.817Q241.964 276.669 241.946 277.529Q241.928 278.388 241.997 279.245Q242.066 280.101 242.221 280.946Q242.376 281.792 242.616 282.617C243.804 286.773 246.489 290.031 250.36 291.972Q251.276 292.433 252.241 292.781Q253.205 293.129 254.205 293.36Q255.204 293.59 256.224 293.698Q257.244 293.807 258.269 293.793C265.169 293.716 281.361 288.92 289.473 287.412C281.405 295.314 270.111 300.398 258.698 300.271C249.896 300.174 240.118 296.838 233.983 290.327C230.557 286.691 227.134 280.817 226.481 275.72C230.14 272.434 230.016 269.274 235.061 266.626C236.053 266.105 235.694 266.509 236.102 265.437L236.827 264.722C241.093 260.433 243.616 255.521 249.623 253.182C255.99 250.702 263.576 249.857 270.319 248.568C282.182 246.3 294.036 244.124 305.856 241.625L530.013 194.691Q547.684 191.026 565.411 187.64C569.761 186.829 574.298 186.447 578.597 185.526C579.575 185.316 579.773 185.129 580.487 184.458C580.414 183.092 580.35 183.158 579.371 182.18C574.669 180.63 533.483 189.769 526.636 191.244Z"/>
	<path fill="#E9E2D8" d="M260.618 673.509C263.357 683.576 265.248 693.89 267.456 704.084L275.845 741.489L299.413 847.712Q305.175 873.942 311.601 900.018C312.975 905.749 313.616 912.055 315.416 917.618C315.785 918.758 315.779 919.258 316.775 919.949C323.986 918.933 331.066 916.724 338.184 915.167Q363.142 909.828 387.989 903.994L498.113 879.134C501.963 880.405 507.185 888.168 509.656 891.46L381.086 919.68C360.789 924.102 340.37 929.752 319.873 933.027C317.041 933.48 313.588 934.161 310.935 932.844C308.462 931.616 306.088 929.77 304.98 927.163C302.814 922.063 302.003 915.817 300.842 910.395L294.16 878.664L265.707 748.821L257.96 713.327C256.553 706.766 255.59 699.464 253.265 693.178C253.198 692.998 253.126 692.821 253.057 692.642Q256.202 682.824 260.618 673.509Z"/>
	<path fill="#E4DDD2" d="M760.865 639.273C766.623 645.148 776.258 659.183 779.308 666.752C781.867 673.105 784.015 679.861 785.837 686.463C788.441 695.892 790.44 705.51 792.896 714.984L810.709 784.203C812.261 790.178 819.908 815.358 819.565 819.861C819.493 820.808 819.202 822.27 818.365 822.854C814.746 825.38 781.031 831.849 774.705 833.275L562.506 879.578C544.877 883.412 527.34 887.909 509.656 891.46C507.185 888.168 501.963 880.405 498.113 879.134L719.255 830.333L775.705 818.085C783.189 816.45 791.107 815.314 798.44 813.193C800.237 812.674 801.245 812.044 802.263 810.425C802.796 809.577 803.314 808.714 803.412 807.7C803.906 802.59 799.12 787.925 797.567 782.063C791.402 758.796 786.068 735.333 779.896 712.077L767.068 662.632C765.06 654.857 762.553 647.118 760.865 639.273Z"/>
	<path fill="#DFB39D" d="M566.043 198.654C569.504 198.17 573.169 198.017 576.382 199.609C579.776 201.291 582.036 204.783 583.028 208.362C583.953 211.702 583.033 215.257 581.29 218.169C578.788 222.35 575.268 224.558 570.767 226.044C561.062 229.247 550.334 230.57 540.308 232.538L486.918 243.176L324.973 276.433C304.109 280.821 283.115 284.436 262.379 289.4C258.368 290.253 255.326 290.294 251.664 288.25C248.8 286.652 246.483 284.004 245.757 280.757C244.949 277.14 246.258 273.192 248.204 270.149C250.866 265.986 255.07 264.418 259.582 263.061C271.193 259.57 283.989 257.866 295.903 255.35L378.543 238.243C441.086 225.307 503.31 210.689 566.043 198.654Z"/>
	<path fill="#E9E2D8" d="M700.647 353.366C704.611 351.357 724.355 348.015 728.483 349.216L728.755 350.334C727.042 362.646 725.254 374.883 725.04 387.338C724.073 443.813 743.754 502.929 758.348 557.112C758.26 557.247 758.208 557.414 758.083 557.515C756.609 558.694 723.429 553.647 719.024 553.747C711.062 545.946 702.929 537.068 697.64 527.211C688.188 509.597 681.419 465.632 677.407 443.928C681.932 450.487 685.778 457.509 690.208 464.145C697.563 475.163 706.221 485.358 711.374 497.686C712.868 501.263 714.255 506.336 716.951 509.097L718.163 509.061L718.698 508.331C717.949 499.343 706.586 481.362 701.596 474.045C697.216 467.624 692.262 461.669 688.038 455.102Q681.88 445.502 677.433 435C672.039 422.214 669.944 401.636 667.696 387.557C667.761 387.434 667.828 387.312 667.892 387.188C668 386.983 668.102 386.775 668.21 386.57C670.213 382.785 671.718 374.341 674.339 371.865C680.012 385.873 688.971 398.241 694.536 412.202C697.75 420.263 698.2 428.909 700.777 437.101C701.84 437.699 701.585 437.577 702.648 437.38C702.738 437.241 702.849 437.114 702.917 436.964C703.676 435.28 702.784 431.52 702.476 429.635C701.51 423.717 700.208 417.334 698.046 411.739C692.285 396.832 682.595 383.85 677.035 368.702C679.038 367.21 680.609 365.122 682.492 363.466C687.075 359.436 691.937 356.734 697.409 354.109C699.431 361.202 701.129 369.416 704.921 375.773C705.58 376.878 705.558 377.134 706.849 377.485L707.481 376.609C707.583 375.959 707.687 375.46 707.535 374.806C706.907 372.107 705.338 369.311 704.405 366.664C702.868 362.305 701.756 357.847 700.647 353.366Z"/>
	<path fill="#DFB39D" d="M288.923 224.031C289.25 223.791 289.571 223.544 289.915 223.33C293.832 220.898 298.735 219.146 302.951 217.246C332.243 204.047 363.956 195.95 394.873 187.558C441.852 174.807 488.725 160.483 536.89 152.761C549.423 150.752 562.012 149.618 574.644 148.467C598.701 146.273 623.142 145.674 647.2 148.191C663.068 149.852 678.492 153.654 694.097 156.793C692.935 163.124 691.785 169.465 690.179 175.702C687.193 187.301 683.135 198.882 682.447 210.916C682.024 218.303 683.262 224.597 685.469 231.602C686.577 235.122 687.825 238.571 688.109 242.279C688.963 253.399 683.839 265.67 681.993 276.611C678.955 267.376 677.364 257.328 675.141 247.85L662.54 195.285C660.975 188.665 659.368 176.95 656.345 171.33C655.059 168.94 652.38 167.532 650.103 166.262C637.544 167.116 619.954 171.41 607.643 174.591C598.391 162.838 586.629 155.09 571.508 153.311Q570.018 153.139 568.522 153.04Q567.025 152.941 565.526 152.914Q564.027 152.887 562.528 152.933Q561.029 152.979 559.534 153.097Q558.039 153.215 556.551 153.406Q555.064 153.596 553.587 153.858Q552.111 154.121 550.649 154.454Q549.187 154.788 547.742 155.191Q546.298 155.595 544.875 156.068Q543.452 156.542 542.054 157.083Q540.655 157.625 539.285 158.234Q537.914 158.842 536.575 159.516Q535.235 160.191 533.93 160.929Q532.624 161.667 531.356 162.468Q530.088 163.268 528.86 164.129Q527.633 164.991 526.448 165.91C516.639 173.665 510.315 183.847 506.79 195.756C483.308 200.158 460.008 205.333 436.604 210.102Q370.625 223.523 304.815 237.758C300.712 231.792 295.09 227.709 288.923 224.031Z"/>
	<path fill="#E9E2D8" d="M791.307 312.495C795.638 319.945 790.418 359.943 792.239 371.546C787.931 380.33 782.631 388.633 777.455 396.923C768.425 411.385 757.322 425.805 755.787 443.316C755.568 445.803 755.24 449.035 755.98 451.448C756.246 452.316 756.446 452.656 757.125 453.216L758.361 453.107C759.149 447.636 758.661 441.846 759.984 436.481C763.739 421.257 782.869 393.914 791.887 379.556C793.081 382.47 792.862 386.77 793.366 389.947C794.648 398.028 796.254 407.308 799.065 414.964C796.584 420.673 793.577 426.126 791.231 431.897Q790.544 433.558 789.915 435.242Q789.285 436.926 788.714 438.631Q788.142 440.335 787.629 442.058Q787.115 443.781 786.661 445.52Q786.207 447.259 785.812 449.013Q785.418 450.767 785.083 452.533Q784.749 454.3 784.475 456.076Q784.201 457.853 783.987 459.638Q783.774 461.423 783.622 463.214Q783.469 465.006 783.378 466.801Q783.287 468.596 783.257 470.394Q783.228 472.191 783.259 473.989Q783.291 475.786 783.383 477.581Q783.476 479.377 783.63 481.168Q783.784 482.959 783.999 484.744Q784.214 486.529 784.49 488.305C785.254 493.192 785.678 498.718 787.349 503.365L788.082 504.034L789.189 503.923C790.493 502.128 789.88 499.614 789.556 497.569C788.786 492.694 787.495 487.9 787.032 482.977C784.971 461.061 789.964 437.387 801.315 418.433C804.854 424.526 810.049 438.927 811.929 446.012C813.393 450.703 813.935 455.803 814.511 460.674C816.519 477.642 816.584 494.002 811.448 510.494C807.059 524.586 791.721 548.354 795.37 562.729C789.132 564.326 770.314 559.529 762.639 558.774Q753.397 527.856 745.641 496.532C732.872 446.556 723.453 400.002 732.697 348.467C745.639 348.413 756.843 351.306 769.493 352.708C766.932 357.001 758.989 368.799 758.574 373.057C758.488 373.942 758.426 373.609 759.036 374.293L759.866 374.123C767.386 368.198 787.292 324.351 791.307 312.495Z"/>
	<path fill="#DFB39D" d="M220.87 651.177C230.236 620.224 238.441 588.889 247.708 557.894C262.916 507.033 280.393 455.99 301.966 407.462C308.197 393.445 317.451 367.686 331.428 360.202C334.203 358.716 337.31 358.074 340.369 359.034C343.601 360.048 346.156 362.574 347.62 365.58C349.074 368.564 349.603 371.923 349.581 375.221C349.515 385.264 346.46 397.544 344.428 407.408C342.024 419.083 339.072 430.526 336.287 442.105C329.031 472.271 320.968 501.88 310.12 531.011L277.549 617.748Q270.957 634.735 264.548 651.792C262.738 656.599 260.586 661.428 259.045 666.319L256.782 671.792C254.785 671.277 252.893 670.609 250.965 669.879L253.172 664.13C261.263 641.396 269.194 618.563 277.545 595.924L300.687 533.846C303.853 525.456 307.402 517.198 310.413 508.752Q319.855 482.468 327.751 455.679Q335.647 428.89 341.971 401.687C343.798 393.65 349.06 376.058 345.617 368.784C345.493 368.522 345.356 368.267 345.226 368.008C345.051 369.195 345.026 368.56 345.338 369.735C347.228 376.863 342.296 395.039 340.51 402.55C334.727 426.874 328.186 451.307 320.443 475.08C306.664 517.388 289.86 558.684 274.577 600.46C266.184 623.403 258.896 647.017 249.692 669.62C242.61 666.06 232.846 658.906 226.994 653.498C239.57 606.08 255.02 559.555 270.523 513.044Q282.336 476.827 295.7 441.154C300.713 427.759 305.723 414.082 311.769 401.114C317.609 388.589 324.183 374.8 334.457 365.328L333.996 365.037C324.733 371.023 315.497 389.927 310.728 400.148C306.158 409.939 302.297 420.108 298.35 430.165C287.578 457.611 278.145 485.661 268.767 513.613Q251.814 562.705 237.413 612.604C233.529 625.71 229.249 638.765 225.838 652.001C224.179 651.487 222.596 651.333 220.87 651.177Z"/>
	<path fill="#E4DDD2" d="M692.736 98.4962C727.612 134.516 763.15 171.368 780.314 219.649L779.599 220.77C772.831 229.594 772.22 245.473 766.857 251.092L766.667 251.698C765.611 255.154 765.094 258.901 764.255 262.43Q762.237 270.713 759.438 278.766C753.622 295.309 745.616 311.164 739.261 327.536C736.568 334.473 734.998 341.48 732.697 348.467C723.453 400.002 732.872 446.556 745.641 496.532Q753.397 527.856 762.639 558.774C770.314 559.529 789.132 564.326 795.37 562.729L796.761 562.993C798.522 564.798 816.923 567.931 820.532 568.403C818.652 580.158 816.707 591.935 813.771 603.483C811.489 612.46 804.582 628.356 804.631 636.959C805.313 638.093 805.314 638.165 806.533 638.649C806.83 638.451 807.246 638.365 807.424 638.057C808.294 636.549 808.481 632.514 808.896 630.649C809.975 625.79 811.663 620.965 813.014 616.166C812.357 628.706 810.647 641.142 810.894 653.732C811.853 702.473 832.157 746.326 852.959 789.421C861.852 807.844 871.358 825.942 877.915 845.381C864.94 832.429 855.551 814.979 846.922 798.958C829.195 766.048 814.441 731.769 798.479 697.981C792.021 684.313 786.296 670.564 778.66 657.47C770.957 644.264 759.687 632.259 749.796 620.632C732.07 599.797 716.776 578.165 706.403 552.727C709.017 552.674 711.551 554.114 713.938 553.405C719.093 558.593 732.3 573.092 738.217 574.956L739.255 574.668C739.35 573.173 738.645 572.236 737.654 571.157C732.274 565.297 724.846 559.582 719.024 553.747C723.429 553.647 756.609 558.694 758.083 557.515C758.208 557.414 758.26 557.247 758.348 557.112C743.754 502.929 724.073 443.813 725.04 387.338C725.254 374.883 727.042 362.646 728.755 350.334L728.483 349.216C724.355 348.015 704.611 351.357 700.647 353.366C696.953 330.356 703.579 308.589 702.434 285.655C701.896 274.893 699.378 264.141 696.144 253.883C691.79 240.067 685.395 226.514 686.281 211.737C687.248 195.609 693.479 179.239 696.979 163.469C700.378 137.474 700.264 123.899 692.736 98.4962Z"/>
	<path fill="#4C4C4A" d="M751.324 183.19C749.842 178.665 740.559 157.599 740.836 155.329C744.838 157.052 748.856 167.227 750.372 171.025C753.034 177.7 754.612 184.63 756.899 191.417C758.573 196.388 760.78 201.167 762.507 206.119C767.731 221.098 768.538 235.414 766.857 251.092L766.667 251.698C765.611 255.154 765.094 258.901 764.255 262.43Q762.237 270.713 759.438 278.766C753.622 295.309 745.616 311.164 739.261 327.536C736.568 334.473 734.998 341.48 732.697 348.467C723.453 400.002 732.872 446.556 745.641 496.532Q753.397 527.856 762.639 558.774C772.317 587.907 780.775 617.405 791.374 646.254C794.722 655.365 798.089 664.552 801.824 673.515C804.941 680.995 809.759 688.917 811.373 696.798C810.764 697.962 810.726 697.916 809.502 698.424C809.373 698.362 809.235 698.318 809.115 698.239C806.585 696.574 803.961 687.597 802.695 684.584Q792.726 661.341 784.023 637.596C781.018 629.246 778.559 620.662 775.8 612.224C769.804 593.89 763.878 575.597 758.348 557.112C743.754 502.929 724.073 443.813 725.04 387.338C725.254 374.883 727.042 362.646 728.755 350.334C728.775 350.279 728.806 350.226 728.815 350.168C730.833 336.731 736.586 323.203 742.033 310.815C751.419 289.468 762.525 266.691 764.475 243.159C766.303 220.75 759.046 199.324 746.365 181.084C743.972 177.642 727.622 157.077 728.934 155.072C733.08 155.965 748.308 178.54 751.324 183.19Z"/>
	<path fill="#E9E2D8" d="M692.736 98.4962C727.612 134.516 763.15 171.368 780.314 219.649L779.599 220.77C772.831 229.594 772.22 245.473 766.857 251.092C768.538 235.414 767.731 221.098 762.507 206.119C760.78 201.167 758.573 196.388 756.899 191.417C754.612 184.63 753.034 177.7 750.372 171.025C748.856 167.227 744.838 157.052 740.836 155.329C740.559 157.599 749.842 178.665 751.324 183.19C748.308 178.54 733.08 155.965 728.934 155.072C727.622 157.077 743.972 177.642 746.365 181.084C759.046 199.324 766.303 220.75 764.475 243.159C757.758 236.554 750.652 230.394 744.238 223.472C735.836 214.405 728.486 204.401 720.811 194.723C720.311 182.114 719.108 150.219 712.458 140.642C711.644 139.471 710.617 138.008 709.141 137.732L708.634 139.204L708.76 138.126C708.434 140.539 712.698 150.857 713.525 154.231C715.656 162.913 716.6 171.97 717.113 180.884L717.118 188.745C712.044 182.314 699.965 169.839 696.979 163.469C700.378 137.474 700.264 123.899 692.736 98.4962Z"/>
	<path fill="#E2B36F" d="M717.113 180.884C716.6 171.97 715.656 162.913 713.525 154.231C712.698 150.857 708.434 140.539 708.76 138.126L708.634 139.204L709.141 137.732C710.617 138.008 711.644 139.471 712.458 140.642C719.108 150.219 720.311 182.114 720.811 194.723C728.486 204.401 735.836 214.405 744.238 223.472C750.652 230.394 757.758 236.554 764.475 243.159C762.525 266.691 751.419 289.468 742.033 310.815C736.586 323.203 730.833 336.731 728.815 350.168C728.806 350.226 728.775 350.279 728.755 350.334L728.483 349.216C724.355 348.015 704.611 351.357 700.647 353.366C696.953 330.356 703.579 308.589 702.434 285.655C701.896 274.893 699.378 264.141 696.144 253.883C691.79 240.067 685.395 226.514 686.281 211.737C687.248 195.609 693.479 179.239 696.979 163.469C699.965 169.839 712.044 182.314 717.118 188.745L717.113 180.884Z"/>
	<path fill="#4C4C4A" d="M717.113 180.884C716.6 171.97 715.656 162.913 713.525 154.231C712.698 150.857 708.434 140.539 708.76 138.126L708.634 139.204L709.141 137.732C710.617 138.008 711.644 139.471 712.458 140.642C719.108 150.219 720.311 182.114 720.811 194.723C719.643 209.786 719.311 224.892 717.954 239.972C717.56 244.349 717.562 249.474 716.348 253.67C716.005 254.854 715.752 255.415 714.653 256.032L713.604 255.412C713.296 254.912 713.162 254.562 713.184 253.967C713.432 247.255 714.355 240.447 714.941 233.753Q716.329 218.183 717.057 202.568C717.405 195.627 717.883 188.381 717.178 181.457C717.158 181.266 717.135 181.075 717.113 180.884Z"/>
	<path fill="#E4DDD2" d="M823.279 820.697C822.627 810.983 817.069 793.742 814.495 783.732L793.276 701.326C792.1 696.603 788.278 687.902 788.44 683.519C788.475 682.573 788.643 683.008 788.185 682.346L788.237 683.335L788.316 682.461C788.363 682.702 788.377 682.953 788.456 683.186C788.808 684.224 789.532 685.384 789.968 686.447C797.148 703.949 805.203 721.026 813.067 738.222C824.332 762.856 835.752 787.121 849.23 810.659C856.285 822.979 863.922 836.217 873.919 846.415C875.697 848.228 878.189 851.057 880.618 851.879C881.389 852.14 881.214 852.023 882.003 851.621C885.427 843.374 855.998 787.689 850.818 776.406C843.229 759.879 835.156 743.138 828.897 726.068C817.858 695.96 812.49 663.039 815.242 631.015C817.036 610.143 821.101 589.742 824.182 569.06C824.311 569.101 824.439 569.143 824.569 569.182C833.023 571.748 842.357 572.314 851.004 574.345C902.782 586.509 951.407 600.272 978.903 650.56C996.572 682.874 995.5 723.43 985.219 757.933Q984.319 760.898 983.346 763.84Q982.373 766.782 981.328 769.699Q980.283 772.616 979.167 775.507Q978.051 778.398 976.864 781.26Q975.677 784.123 974.421 786.955Q973.164 789.788 971.839 792.588Q970.513 795.389 969.119 798.157Q967.724 800.924 966.263 803.656Q964.801 806.389 963.273 809.084Q961.745 811.78 960.151 814.437Q958.557 817.095 956.898 819.712Q955.239 822.329 953.517 824.905Q951.795 827.481 950.009 830.014Q948.224 832.547 946.378 835.035Q944.531 837.523 942.623 839.965Q940.716 842.408 938.75 844.802Q936.783 847.197 934.758 849.542Q932.733 851.888 930.651 854.183Q928.57 856.478 926.432 858.722Q924.294 860.965 922.103 863.156Q919.911 865.346 917.666 867.482Q915.42 869.618 913.124 871.698Q910.827 873.778 908.48 875.801Q906.133 877.824 903.737 879.789Q901.34 881.754 898.897 883.659Q896.453 885.564 893.964 887.409Q891.474 889.254 888.94 891.038Q886.406 892.821 883.828 894.541Q881.251 896.262 878.633 897.918Q876.014 899.575 873.356 901.167Q870.697 902.759 868 904.285Q865.303 905.811 862.57 907.271C849.379 914.401 835.426 920.864 821.328 925.989C753.739 950.56 659.985 959.923 590.431 939.14C568.574 932.609 546.818 922.21 528.704 908.292C523.027 903.93 517.945 898.974 512.478 894.38C531.231 890.58 549.891 885.961 568.594 881.889L690.151 855.637Q737.784 845.423 785.29 834.63C796.496 832.058 808.004 830.052 819.085 827.072C821.01 825.174 822.133 823.112 823.279 820.697Z"/>
	<path fill="#E4DDD2" d="M701.887 550.973C704.497 556.248 706.535 561.801 709.039 567.13C713.452 576.521 718.946 586.26 724.983 594.718Q732.544 605.107 740.803 614.951C745.208 620.208 751.087 625.624 754.139 631.795C757.59 638.772 759.28 647.022 761.288 654.526L771.787 695.385Q781.707 732.948 790.915 770.693C793.163 779.609 795.372 788.605 797.733 797.484C798.375 799.897 799.351 802.27 799.835 804.718C800.099 806.057 800.052 807.049 799.668 808.348C798.277 809.979 795.538 810.411 793.509 810.881Q757.034 818.974 720.449 826.552L603.735 852.161L531.542 868.089C519.379 870.796 507.152 873.95 494.902 876.191L366.75 905.151C350.739 908.874 334.681 912.12 318.763 916.259C314.593 895.099 309.012 874.254 304.304 853.213Q283.659 763.482 264.675 673.385C264.691 673.331 264.698 673.273 264.722 673.223C265.3 672.038 265.397 672.025 266.78 672.115C270.165 672.336 274.246 673.872 277.61 674.636Q287.14 676.747 296.895 677.093C325.303 677.891 359.756 673.163 386.343 662.95C390.858 660.02 403.412 658.897 409.418 656.757C415.903 655.816 422.511 653.895 428.913 652.446L470.629 642.944L533.511 629.082C544.969 626.631 556.592 624.635 567.952 621.777L568.314 620.893C570.628 615.181 574.384 609.929 578.101 605.051C601.333 574.56 633.441 555.519 671.708 551.808Q681.235 550.96 690.799 551.055C694.146 551.075 698.062 551.677 701.3 551.114C701.499 551.08 701.692 551.02 701.887 550.973Z"/>
	<path fill="#4C4C4A" d="M520.507 713.266C540.167 709.392 559.71 704.769 579.296 700.53L655.003 684.525L693.342 676.301C699.945 674.904 706.634 673.228 713.301 672.199C715.104 671.921 717.969 671.404 719.648 672.281C719.791 672.356 719.911 672.468 720.043 672.562C719.909 673.561 720.138 673.278 719.39 673.855C718.189 674.783 716.542 675.213 715.089 675.567C702.407 678.655 689.243 680.713 676.455 683.47L560.145 708.274C545.655 711.393 530.808 714.008 516.48 717.728C506.11 719.62 495.83 722.196 485.543 724.506Q462.9 729.652 440.178 734.435C431.97 736.209 423.476 739.015 415.167 740.018C413.683 740.197 411.9 740.485 410.65 739.494L410.671 738.318C411.374 737.424 412.093 737.034 413.161 736.704C414.962 736.146 416.891 736.068 418.729 735.666L440.02 730.899L490.409 719.87C500.399 717.716 510.66 715.984 520.507 713.266Z"/>
	<path fill="#4C4C4A" d="M483.576 802.853C499.788 799.847 515.806 795.887 531.941 792.503L666.663 763.684Q690.432 758.381 714.326 753.673C721.379 752.216 728.442 750.295 735.555 749.184C737.389 748.898 738.99 748.802 740.788 749.303L741.454 750.107C741.115 751.064 741.129 751.194 740.13 751.606C734.415 753.966 723.082 755.337 716.691 756.634L669.103 766.613Q575.673 787.149 482.034 806.713L448.618 813.898C443.363 815.038 437.778 816.774 432.469 817.467C431.281 817.622 430.972 817.553 429.932 817.05C429.58 815.78 429.554 815.785 430.085 814.585C432.638 812.82 476.534 804.427 483.576 802.853Z"/>
	<path fill="#4C4C4A" d="M567.952 621.777C582.75 619.138 597.431 615.277 612.125 612.084C631.488 607.878 650.962 604.183 670.342 600.051C676.987 598.634 698.768 592.784 704.008 593.363L704.901 594.351C704.557 595.517 704.528 595.501 703.477 596.023C700.069 597.717 695.49 597.831 691.804 598.66C685.525 600.073 679.314 601.717 672.995 603.057L596.285 619.158C585.33 621.534 573.112 623.495 562.499 626.716C541.999 630.655 521.733 635.324 501.358 639.83Q475.2 645.411 449.108 651.3C430.049 655.716 410.902 660.831 391.726 664.579C390.278 664.861 389.014 664.977 387.612 664.444L386.343 662.95C390.858 660.02 403.412 658.897 409.418 656.757C415.903 655.816 422.511 653.895 428.913 652.446L470.629 642.944L533.511 629.082C544.969 626.631 556.592 624.635 567.952 621.777Z"/>
	<path fill="#E9E2D8" d="M386.343 662.95L387.612 664.444C389.014 664.977 390.278 664.861 391.726 664.579C410.902 660.831 430.049 655.716 449.108 651.3Q475.2 645.412 501.358 639.83C521.733 635.324 541.999 630.655 562.499 626.716C562.818 629.999 556.827 637.583 554.856 640.911C545.797 656.203 538.533 672.885 531.126 689.03C527.519 696.893 523.114 705.044 520.507 713.266C510.66 715.984 500.399 717.716 490.409 719.87L440.02 730.899L418.729 735.666C416.891 736.068 414.962 736.146 413.161 736.704C412.093 737.034 411.374 737.424 410.671 738.318L410.65 739.494C411.9 740.485 413.683 740.197 415.167 740.018C423.476 739.015 431.97 736.209 440.178 734.435Q462.9 729.652 485.543 724.506C495.83 722.196 506.11 719.62 516.48 717.728C516.548 718.148 516.754 718.568 516.685 718.988C516.121 722.416 502.149 748.742 499.366 754.418Q496.586 760.171 494.2 766.099Q491.814 772.027 489.834 778.102Q487.853 784.177 486.287 790.372Q484.721 796.567 483.576 802.853C476.534 804.427 432.638 812.82 430.085 814.585C429.554 815.785 429.58 815.78 429.932 817.05C430.972 817.553 431.281 817.622 432.469 817.467C437.778 816.774 443.363 815.038 448.618 813.898L482.034 806.713C482.064 806.933 482.098 807.152 482.124 807.372C482.539 810.862 480.39 824.182 480.351 829.803C480.265 842.228 483.706 852.991 489.121 864.074C491.061 868.044 493.386 872.049 494.902 876.191L366.75 905.151C350.739 908.874 334.681 912.12 318.763 916.259C314.593 895.099 309.012 874.254 304.304 853.213Q283.659 763.482 264.675 673.385C264.691 673.331 264.698 673.273 264.722 673.223C265.3 672.038 265.397 672.025 266.78 672.115C270.165 672.336 274.246 673.872 277.61 674.636Q287.14 676.747 296.895 677.093C325.303 677.891 359.756 673.163 386.343 662.95Z"/>
	<path fill="#4C4C4A" d="M355.354 763.688C360.222 763.227 365.801 764.34 369.974 766.869C374.023 769.324 377.061 773.328 378.005 778C378.855 782.206 377.747 786.286 375.279 789.744C371.015 795.72 364.422 798.202 357.494 799.468C351.761 799.563 346.276 798.98 341.279 795.858C337.273 793.354 334.15 789.435 333.266 784.727C332.467 780.472 333.651 776.316 336.239 772.89C341.005 766.582 347.899 764.598 355.354 763.688Z"/>
	<path fill="#E9E2D8" d="M354.092 767.153C358.712 766.684 363.932 767.191 367.938 769.689C371.124 771.675 373.515 774.877 374.234 778.595C374.843 781.747 374.159 784.809 372.36 787.456C368.991 792.409 363.366 794.895 357.682 795.99C352.985 796.196 348.326 795.873 344.104 793.566C339.379 790.985 337.587 787.209 336.213 782.284C336.892 779.741 337.597 777.51 339.146 775.351C342.795 770.263 348.108 768.09 354.092 767.153Z"/>
	<path fill="#4C4C4A" d="M339.006 694.151C344.688 693.472 351.01 694.502 355.769 697.788Q356.135 698.039 356.488 698.308Q356.84 698.577 357.179 698.864Q357.517 699.151 357.84 699.455Q358.163 699.759 358.469 700.08Q358.776 700.4 359.066 700.736Q359.355 701.072 359.627 701.423Q359.899 701.773 360.153 702.137Q360.406 702.501 360.64 702.878Q360.875 703.255 361.089 703.643Q361.304 704.031 361.498 704.43Q361.692 704.829 361.865 705.237Q362.038 705.646 362.19 706.063Q362.342 706.479 362.472 706.904Q362.602 707.328 362.709 707.758Q362.817 708.188 362.903 708.624Q362.988 709.059 363.051 709.498C363.634 713.81 362.157 718.1 359.516 721.497C354.998 727.304 348.672 729.316 341.704 730.307C336.597 730.563 331.101 729.644 326.637 727.089C322.523 724.735 319.118 720.91 318.046 716.21C317.094 712.034 318.212 707.781 320.627 704.302C324.885 698.168 331.917 695.34 339.006 694.151Z"/>
	<path fill="#E9E2D8" d="M339.221 697.597C343.609 697.32 347.996 697.636 351.936 699.768C355.357 701.619 357.991 704.72 358.951 708.523Q359.106 709.136 359.197 709.762Q359.289 710.388 359.316 711.02Q359.343 711.652 359.305 712.284Q359.268 712.915 359.166 713.539Q359.064 714.164 358.899 714.774Q358.734 715.385 358.507 715.975Q358.28 716.566 357.995 717.13Q357.709 717.695 357.367 718.227C354.045 723.499 348.352 725.476 342.57 726.686C337.946 726.916 333.484 726.451 329.322 724.26C325.937 722.478 323.042 719.616 322.032 715.842C321.156 712.569 321.896 709.191 323.738 706.385C327.25 701.035 333.213 698.765 339.221 697.597Z"/>
	<path fill="#4C4C4A" d="M370.822 831.642C375.913 831.19 381.641 831.981 386.066 834.627C390.234 837.119 393.307 841.175 394.289 845.962C395.176 850.292 394.122 854.543 391.53 858.094C386.974 864.336 379.913 866.757 372.619 867.865C367.364 868.222 362.216 867.39 357.634 864.675C353.52 862.239 350.209 858.4 349.184 853.65C348.257 849.352 349.453 844.972 351.974 841.431C356.51 835.058 363.488 832.797 370.822 831.642Z"/>
	<path fill="#E9E2D8" d="M370.83 835.129C375.026 834.712 379.871 835.32 383.623 837.282C386.815 838.951 389.279 841.661 390.302 845.15Q390.483 845.766 390.6 846.398Q390.718 847.029 390.769 847.669Q390.82 848.309 390.806 848.952Q390.791 849.594 390.71 850.231Q390.629 850.868 390.483 851.493Q390.337 852.119 390.128 852.726Q389.918 853.333 389.647 853.915Q389.376 854.498 389.047 855.049C385.655 860.709 379.433 863.06 373.343 864.488C368.523 864.689 364.254 864.305 359.95 861.812C356.63 859.889 353.761 856.913 352.888 853.08C352.135 849.779 352.987 846.268 354.872 843.496C358.556 838.081 364.714 836.168 370.83 835.129Z"/>
	<path fill="#DFB39D" d="M615.741 191.758C624.516 189.681 633.452 188.567 642.288 186.848C645.483 196.848 647.492 207.39 649.896 217.616Q656.276 244.362 662.247 271.203C665.054 283.859 669.589 297.87 671.161 310.495C671.864 316.136 669.827 322.751 669.056 328.38C667.089 342.737 669.994 358.19 674.339 371.865C671.718 374.341 670.213 382.785 668.21 386.57C668.102 386.775 668 386.983 667.892 387.188C667.828 387.312 667.761 387.434 667.696 387.557Q665.902 375.92 665.169 364.169Q664.435 352.418 664.767 340.648C664.842 337.953 665.613 333.228 664.208 330.907L663.192 330.437C662.187 331.091 662.276 331.471 662.052 332.602C659.756 344.198 661.57 367.261 663.027 379.495C663.646 384.693 664.847 390.216 665.021 395.409C667.839 411.232 671.35 426.895 674.219 442.692C677.135 458.741 679.215 474.968 682.878 490.875C685.982 504.357 690.322 517.088 694.708 530.178C697.047 537.16 699.063 544.154 701.887 550.973C701.692 551.02 701.499 551.08 701.3 551.114C698.062 551.677 694.146 551.075 690.799 551.055Q681.235 550.96 671.708 551.808C633.441 555.519 601.333 574.56 578.101 605.051C574.384 609.929 570.628 615.181 568.314 620.893L567.952 621.777C556.592 624.635 544.969 626.631 533.511 629.082L470.629 642.944L428.913 652.446C422.511 653.895 415.903 655.816 409.418 656.757C403.412 658.897 390.858 660.02 386.343 662.95C359.756 673.163 325.303 677.891 296.895 677.093Q287.14 676.747 277.61 674.636C274.246 673.872 270.165 672.336 266.78 672.115C265.397 672.025 265.3 672.038 264.722 673.223C264.698 673.273 264.691 673.331 264.675 673.385C264.586 672.435 264.553 671.582 264.132 670.712C263.893 670.218 263.528 669.697 263.362 669.175C262.95 667.883 263.518 666.426 263.911 665.178C266.708 656.291 270.502 647.557 273.808 638.832L292.972 587.664C296.67 589.796 300.404 591.245 304.71 591.564C311.666 592.079 319.161 589.751 324.404 585.116C327.957 581.975 330.494 577.638 330.717 572.832Q330.747 572.035 330.694 571.239Q330.641 570.443 330.506 569.657Q330.371 568.871 330.155 568.103Q329.939 567.335 329.644 566.593Q329.349 565.852 328.979 565.145Q328.609 564.439 328.168 563.774Q327.727 563.109 327.219 562.494Q326.711 561.879 326.142 561.32C320.842 556.077 313.923 555.332 306.88 555.516C320.377 532.983 332.42 509.254 344.044 485.703C356.952 459.551 364.57 431.141 362.216 401.731C361.415 391.72 359.298 381.76 357.652 371.86C356.329 363.905 356.216 354.424 353.484 346.884C352.274 343.543 350.313 340.569 346.948 339.119C343.777 337.754 340.317 338.295 337.269 339.713C334.046 341.213 331.274 343.635 329.082 346.409C322.71 354.475 318.321 364.639 313.7 373.804C293.938 413.005 277.893 454.351 263.67 495.87Q257.474 514.149 251.662 532.554C248.867 541.467 246.299 550.531 242.981 559.265C241.313 548.484 238.479 537.753 236.148 527.093Q230.034 498.273 223.557 469.533Q206.062 388.475 187.371 307.684C189.346 306.366 191.044 304.556 192.955 303.116C198.78 298.725 204.815 294.593 210.352 289.835C218.329 304.177 229.592 313.742 245.512 318.211Q246.829 318.586 248.164 318.894Q249.498 319.203 250.846 319.445Q252.194 319.687 253.553 319.862Q254.911 320.037 256.277 320.144Q257.642 320.251 259.011 320.29Q260.38 320.33 261.749 320.301Q263.119 320.272 264.485 320.176Q265.851 320.079 267.211 319.915Q268.571 319.75 269.921 319.518Q271.27 319.287 272.607 318.988Q273.944 318.69 275.264 318.326Q276.584 317.961 277.885 317.532Q279.186 317.103 280.463 316.609Q281.741 316.116 282.992 315.559Q284.244 315.003 285.466 314.385Q286.689 313.768 287.879 313.09C299.404 306.567 309.185 295.466 313.176 282.79C332.681 277.908 352.77 274.425 372.486 270.44L484.032 247.847Q496.584 245.141 509.175 242.623C514.775 241.537 520.601 240.741 526.117 239.329C535.947 249.643 548.183 255.771 562.636 256.101C576.401 256.415 591.037 250.348 600.94 240.843C610.672 231.504 616.831 218.311 617 204.767C617.056 200.363 616.481 196.088 615.741 191.758Z"/>
	<path fill="#4C4C4A" d="M648.781 368.623C649.308 368.563 650.204 368.391 650.752 368.494C652.023 368.733 652.404 368.987 653.154 369.932L652.887 370.568C651.708 371.578 650.388 371.977 648.898 372.321C642.905 373.702 636.705 374.395 630.666 375.59C615.551 378.58 600.471 382.064 585.364 385.171L455.109 412.692C430.607 417.943 405.971 422.745 381.609 428.622C380.689 428.839 379.957 428.875 379.019 428.899C378.02 428.173 377.951 428.414 377.692 427.114C379.109 425.213 381.11 424.814 383.346 424.212C391.933 421.902 400.988 420.503 409.705 418.679L464.784 407.031Q556.641 387.149 648.781 368.623Z"/>
	<path fill="#4C4C4A" d="M637.407 450.812C643.238 449.753 663.998 445.031 668.609 445.792L668.5 447.632C664.091 450.261 641.621 453.452 634.596 455.143C607.841 459.206 581.041 465.324 554.528 470.789L425.615 497.631C415.832 499.682 363.848 511.626 359.838 510.87L359.328 510.084L359.913 508.925C361.303 507.952 362.554 507.399 364.184 506.921C373.023 504.326 382.585 503.2 391.606 501.274Q423.948 494.234 456.4 487.719L637.407 450.812Z"/>
	<path fill="#4C4C4A" d="M575.041 541.682Q613.558 533.894 652.21 526.807L674.812 522.516C677.122 522.082 679.341 521.198 681.659 520.821C682.935 520.613 683.909 520.667 685.157 521.056L685.89 521.971C685.767 522.908 685.994 522.805 685.281 523.266C681.791 525.52 675.15 525.535 670.981 526.394Q635.9 533.539 600.699 540.072C590.726 542.024 579.827 543.348 570.133 546.239C563.278 547.142 556.402 548.975 549.634 550.424L519.52 556.697C491.274 562.696 462.917 568.348 434.735 574.625C424.377 576.932 381.158 588.164 374.771 587.177L374.356 586.559L374.807 585.642C376.52 584.27 378.453 583.584 380.548 582.997C394.673 579.044 409.539 576.791 423.879 573.577Q483.116 560.579 542.492 548.237C553.266 546.018 564.408 544.433 575.041 541.682Z"/>
	<path fill="#4C4C4A" d="M319.571 622.137C325.455 621.586 331.121 621.961 336.359 625.005C340.497 627.411 343.712 631.315 344.81 636.025Q344.99 636.785 345.092 637.56Q345.194 638.335 345.217 639.116Q345.24 639.897 345.183 640.677Q345.126 641.456 344.99 642.226Q344.855 642.995 344.641 643.747Q344.428 644.499 344.139 645.225Q343.851 645.951 343.49 646.644Q343.129 647.337 342.699 647.99C338.653 654.248 332.062 656.686 325.166 658.323C319.02 658.75 313.299 658.536 307.835 655.25C303.706 652.768 300.514 648.864 299.509 644.093C298.593 639.743 299.64 635.215 302.133 631.566C306.195 625.621 312.842 623.371 319.571 622.137Z"/>
	<path fill="#DFB39D" d="M320.761 625.616C324.853 625.224 329.124 625.424 332.899 627.184C336.504 628.865 339.345 631.828 340.621 635.62Q340.828 636.217 340.971 636.833Q341.114 637.449 341.19 638.077Q341.267 638.704 341.277 639.336Q341.286 639.968 341.229 640.598Q341.171 641.228 341.047 641.848Q340.924 642.468 340.735 643.071Q340.546 643.674 340.294 644.254Q340.042 644.834 339.73 645.384C336.668 650.826 331.088 653.014 325.377 654.514C320.039 654.933 314.916 654.76 310.127 652.012C306.826 650.117 304.075 647.155 303.187 643.378C302.409 640.069 303.175 636.705 305.026 633.888C308.554 628.518 314.794 626.681 320.761 625.616Z"/>
	<path fill="#E9E2D8" d="M665.021 395.409C667.839 411.232 671.35 426.895 674.219 442.692C677.135 458.741 679.215 474.968 682.878 490.875C685.982 504.357 690.322 517.088 694.708 530.178C697.047 537.16 699.063 544.154 701.887 550.973C701.692 551.02 701.499 551.08 701.3 551.114C698.062 551.677 694.146 551.075 690.799 551.055Q681.235 550.96 671.708 551.808C633.441 555.519 601.333 574.56 578.101 605.051C574.384 609.929 570.628 615.181 568.314 620.893L567.952 621.777C556.592 624.635 544.969 626.631 533.511 629.082L470.629 642.944L428.913 652.446C422.511 653.895 415.903 655.816 409.418 656.757C411.724 653.54 426.018 649.06 430.241 647.283C449.492 639.184 468.995 628.796 486.656 617.659C506.076 605.411 525.289 591.553 542.05 575.819C551.922 566.553 561.124 556.34 570.133 546.239C579.827 543.348 590.726 542.024 600.699 540.072Q635.9 533.539 670.981 526.394C675.15 525.535 681.791 525.52 685.281 523.266C685.994 522.805 685.767 522.908 685.89 521.971L685.157 521.056C683.909 520.667 682.935 520.613 681.659 520.821C679.341 521.198 677.122 522.082 674.812 522.516L652.21 526.807Q613.558 533.894 575.041 541.682C575.955 537.041 589.292 523.703 593.027 518.83C608.495 498.649 621.884 477.134 634.596 455.143C641.621 453.452 664.091 450.261 668.5 447.632L668.609 445.792C663.998 445.031 643.238 449.753 637.407 450.812L636.752 450.296C636.946 449.067 662.867 398.91 665.021 395.409Z"/>
</svg>
